<mxfile host="app.diagrams.net" modified="2023-12-13T15:06:59.824Z" agent="Mozilla/5.0 (Windows NT 10.0; Win64; x64) AppleWebKit/537.36 (KHTML, like Gecko) Chrome/120.0.0.0 Safari/537.36 Edg/120.0.0.0" etag="aiaOzUMlIJ1GfEde83dL" version="22.1.8" type="github">
  <diagram name="Page-1" id="N6np93C16rq7mn8tg85-">
    <mxGraphModel dx="2026" dy="1111" grid="1" gridSize="10" guides="1" tooltips="1" connect="1" arrows="1" fold="1" page="1" pageScale="1" pageWidth="850" pageHeight="1100" math="0" shadow="0">
      <root>
        <mxCell id="0" />
        <mxCell id="1" parent="0" />
        <mxCell id="Vw8O1fEMMfxQHj2jqCue-1" value="" style="shape=image;verticalLabelPosition=bottom;labelBackgroundColor=default;verticalAlign=top;aspect=fixed;imageAspect=0;image=data:image/png,iVBORw0KGgoAAAANSUhEUgAAAMgAAADICAYAAACtWK6eAAAABHNCSVQICAgIfAhkiAAAAAlwSFlzAAALEwAACxMBAJqcGAAAGPtJREFUeJztnXmYHVWVwH/dCUnIwk4IewKRgIBEViHsIkaQRWVHMaAgKqCjzDiKyjLO+M0wrAIuLCKMLA4ERmURgRA2WYIoMGxB9kQgGyHpDiHdef5x+kHn9bunbq23Xr3z+777JV/Xq1vn3qpTdZezdFA9xgKTgM2BCcB4YA1gVF9ZKZhkfvQCrwC3AucALweVxmh5BgP7A5cBLwG1CpVu4OjsuspoJ8YD5wJvEP5BzrMsBw7IqM+MNmAr4Bqgh/APb1FlNjAsi84zqsuayDBqOeEf2BDl8PRdaFSV44C5hH9IQ5bzU/eiEZvBoQWIYBXkq3FoijreRFaC3gEWAcvSi5Ub44HtHMdWL1IQQyizgnwEmApsGuOcZcB9wN3AdOBJYGH2ouXCWsAM5fgbRQlilJ89gLfxH378BTgZechakUGIUmttnBxMOqNUHAgswU8xHgT2CyNmppyL3s6ngM5g0hmlYR9gKdGKMRs4MpCMWfN59La+C2wfTDqjNGyPTKKjlOPXyOS9CnwU2S3X2ntsMOmM0jCG6B3xd4HjQwmYA2shq2tamy8OJZxRHjqBu9AflHeAvUMJmAM+k/L7KL9hpVEAP0R/UBbg3htoVaIm5a8D6wSTzigNWwDv4X5QlgC7BZMuH3wm5TsFk85YgdAbhRejDyO+gAw1ysgoYPe+f30ZCVwY8ZvbgXF9pRdYjKzaPY+8MIw24VD0N+kF4USLZG9gHv4bmVmUHuBR4EzgQ/k30QhJB/AE7ofhr8CQYNLpjKJ45Wgsy4HfIsvERgU5CP3m7xJOtEj2J6xy9C+9yJfWfEUqxv24b/qV4cTyYj/CK0ZjeRzYMM9GG8UxHn2cvUk40bwYAbxFeKVoLK9hc5NKcBbum3x1QLnisBviZxJaKRrLS4hVgpERHQGuORP5ijRjF+BPBcqShuHAruRrF9aJOEptCXwS2MzjnGmI0efyHOUycmIs7rff8+HEahn2QEz8o74kp4QS0EjHsbhv6lkB5WolOoDvoQevWIgEyzNajCtx39Tdw4nVknwJ/StyZjjRjKQ8RvOb2U15NwbLzPm4FWQ2YjVstBAuh6iHQwrVwgxHLH9dSrJXONGqQZF+zusjxnrNeLZAOapEN2I672KfogSpKkUqyLrKsZmFSeFHJxI0+k5kwtuLbMT9EglHVCauUY6ZL3sLsSfuocDXw4k1gPWAe3DL2gOcTrmijDxPc1lfDCmUEY8DcD90xwSUqz8H429GMg3YKIyYA7id5jK+HVKoKlDkW3C4cqy7MCmaMxoZqtwErO15zp5IvKqvEv5rstjx9xGFSlFBiryxIcxaohgKfAt4jmRxtkYBlyCrcLtmKFdWlLHPW4rQb75QDAFOQBTjHGC1lPVtj7gG34L5k1eKdlOQ9YAfIPGofg5s7HHOUkSRfNgPeAi4FzgM2/w0YnAE7gnvITled01gCnAb8bNS/Q35OgxFAkzEObeG5DT5KeLDnmeAjBsc1+/J8ZpGxhSlIOshK2Y/Rt7mvcp1tXIFAyOW7AfMSljfQuBmZM4zCfemaRJMQSpAXgoyGFmevQb4u3IN3/IieqqBVYGLSK549bIceBqxp9ohRfvBFKQSZK0gncCXgVeVeuOURcD38Q+AsA3wx4yuXUP89CfF7wbAFKQSZKkgY9EDP8QpXchK1uiE7doLfec97lflYmTOEwdTkAqQlYLsTDYJPWchK1prpmvW++yEDPN88ptElQeJ5/BkCpIToUOP1tkESaH2YcQHuxtZQboP+VLU/at3BO4g+QR3CbJXcXXfv73JRR7Aw8BRSFqDo/v+v2PCunZGhm97IkM/kH6ZjMxX1uUDJX8U2zGvBNoXRCsvAycCGxCdQ6RZeQHZ8/gMurlLHmwEfA1ZvZqfQPapSJSSnyNBreOeb1+QlBRpinAEcG2K87uIflO+h+Td+BOS2PMRypMdtgOJZr8DMBH5Okz0OG8JsHLCa/ZSnlGCEUHSL4jv5PYnJJ9oh6JuopJXv9gXpIXIS0GWIBuDrUonEl/XFKTNyUtBDi+yETlyLaYgbY2vgmjxnhrLDYW2IF9WJ9lE3hQkR8pkzfsM8HFkUrk+YoIRxY9zlahYFgC/iPjNfMT7chXE5OWfkH0XowJoX5A3aO7Jp43NX81f5MLZBf3L2ixvypHKOfYFaSE0BTndcc5Y5Zxb8xU3CKvjbu8DynmuoA2mICkpyxDracffX8UdpXxeTrKEZCHu9moRSv4/B1kMyqMgNcfflwMzHMeqGI0xaXuzNJkxApHUWPFjSNSO/r9/iPgWr61CkvaasWJOtIIZwkOI78UJiJHeI8ClVHf1pt3aa/QRyie9HbAvSE6UZQ5iGKXEFMQwFExBDEPBFMQwFExBDEPBFMQwFExBDEPBFMQwFIpUEJe9lZEf1ucpKVJBlijHVi1Mimriym8SOnNXy1OkgsxWjlk21uQMBrZ1HNP63CgZw4FlNLcZmodFB0zK53DbuF0fUC4jAVoMqPMCytWqjEJCtLr69IRwohlJ+Bp6FI5vhBOt5RgF3Im7L5fin7HXKAmjiI7MfiOwZSgBW4DByLBK+3LUkAxZRgtyCvqNrZfngd8BvwT2DyJpORgBnIrMJ+7EL3ZWFxI422hBOkmWcOb0ALKGZgTwOPH76ushhDWyYzQSpSPOTe8BNgwhbEBOJb5yXBZEUiNzNgaeJd7NPyiIpOG4nvjKYeZDFWI14j0ER4URMxh/wK9fuoGTAsloFMBkJHpH1IPQbg/BY+j9sQz4FfI1NtqAbZGMs64H4t/DiRYEV973t5CJeKslDDIyYAgSKbDZg3FNQLmKZmXcqSB+H1CutqKME7r3gNccxyYUKUhgJuDOIanF6TUypIwKAu5g1lsCKxUpSEC0BJ/PFCZFm1NWBfmr4+9Dga2LFCQgOyjHnihMijanrAryiHJsUmFShGU3x997kRTXRhszGvdKVjtMUMfgnqA/FlCutqOsX5C3cCeF2ZPqpj6osz/uCfq0IgVpd8qqIAB3OP4+gupb935OOfbHwqQwSs0euIdZUwPKlTejcbsmv0P1v56GJ4OAN2n+oLxLdXeR/xn3i+HXAeUySsj5uB+WfwsoV150onsK7hdONKOMTMT9sFQxEooWoWQ2rZEyzyiYB3E/NKcFlCtrBgFP4W7rWeFEa19cS4ll4jDc8Z26gM2B14sTJzeOB37hOPYeMBax7vVhPPI12goxejR0liNf6LuAW2mxtNqd6J6H14UTLTNGI0NGVxsv96xnOPBz3NbQVqLLs8BOnv1dGo5Gb9TR4UTLBFeW2hqy5LuJRx0rA/cr9VjxL0uAvT36vDR0AI/ibtBiZKjVipyIfrMu8qxHW/GzEr+8Bazh2felYBfc9kk1ZIK7ejDpkrEHEgHR1aY5+N2kMcg8JfRDVbXyA4++LxUXoTdoBu5UAGVjItFB4D7vWddxEfVYSVb+7Nn/pWEk8AJ6ox6h/PlGtkOflNeA/41R38VKPT1WIotrZNIV4x6Uho8ipibaw/Us5XWsOhCZM2nyv0A8JXdNzpfSPh6YaXD13+KQQqXhWKI/j93AlEDyNWMl4Gz0eVQNMUjcKka9HcBCR10uz0zjA7T+ezKgXKk5E79x5P8BWwSSsc6u6Lvk/d/4n4hZ9zilvqsykL3qaP33PwHlyoQL8FOSHmSXer2C5ZuIKKiPjO8BBye4xkFKnaemE78tOBh3//1LQLky4z/xewDrb+ibgUPIz69iBHAkMD2GXF0kt9T9oVLvvkkb0UZo/Tc5oFyZchJuJyNXWYDkHjkBWVUakvDag4FtgJOB3yIPexw5ZqNHMIlC24VfJ0W97cKNuPtv3VYwVvRlL+Bakj8U7yGTsueBtxvKYkSBhiIbd2sjCWo2RXbwhyW85r3AEfgbITZjJmKc2MhbmIL48AJyHxuZQwWd8tYkfsqAEGUp8D3ExD0NI3Cvirl8+o0PGIm7/+4MKFfu3EJ4JdDKlIza+THlGv+d0TWqzM64++9cKHdUkzQsCS1ABFltQG2jHLM9kGg+ohz7K1RXQdoF7QZbeNJotBfME9B+CrIc2Ru4B5mU58EcJPrIpTnV3x/XDV6GBbj2wfWC6cEdQL0SuJY+e/r9Zjiy8vVd4DdIJMcoG6/GMg/4E+LFdwJiIlJfGTxCOe+QDNqomUjY1yMarf+eqv+onaNkdCNhPKf1+1sHsrQ3BvEtGYks73YgbqzvAouAucj+xaIC5W1kLLCK45gpSDRjcfff+/O3qinIYOTtvF3C82tIsLo3M5OoOZ9H4l89nqIOm6CnI3L+AdWZg3QiTkMvIJuFYx2/66C4l4JmZn4Q4oxzG2K+nwSboKejbV4wH8YvQ269FBXg4XZPeXoRf/K44Xk0E4kx6cUfwEgkaPj+ff9vdbT+K9qoNTeOQ/Y84kysXyN/j8MDY8pUnxhuFuMaMx315DE83BOZd9WvMafvb62MyzN1TkihsiSOFW9jmUp+QfPGIZ2cRK75iO9IFJqJRNbpEYbTvD1dtFhonH5o/XdXQLlSMwiZQ5xHcuWol0tJbwvVyEa43+y+pQvYva+dLvk0E4lzMm7TPhGyZqEkRRvNav13Xv8flm0VawKyArV53//HI9azo/pKHJP0pci+hyvA9ZeBDYFjEMvXtHwc8UDTxv9vEx11ZTjiS1Knt++8t5Dh4Uz08EZZTNDHAZ9GQi1pK4LDgd8BBwB3e9a9EfAZJOTR1sAGiDV0D9LGZ4AHEEezvKKKRJqYlIVVgC8iD9Ys0n8Vasgu8nnIfsYXPX4/D/gGyWPYbgL8imhf83nAukgS0jwjIGrpo6OYjFgZxL3mYpqb3PdnR0SZovqpf3kcic2cNZco19w2h+vFohP4FBJTt5tsH47nGNjAqz3PnYuEz/kk8rXSGItY5P4eefNF1d3LimnjOhAnLy1oXNKXQxLHr43wX3VzFZf18CgktnCauu8jWgHj4HpBLSNgBq/ByEOlBaJOU+6l+fBlGPHcX+sP9Kt9dd4C3AT8AQl/GhXsrVn5pqNPdkWGT1n1QZIoHPsmbFNjuaZJ3ZshDmhZtO0dsslN2dFXV7NruBLH5s4XgJccQmVVtCXSUcRXkqxKlOP/GRleK26Kts+SXcjSUxrq3gJ3Cr2kZRnph1ybKPU3U/Jc2ZJkY9ok5fgIWYYiYXCKUowu4CiPPspSceNE4ZhEfONMV5nBim7Ho4FXMmxX/7IU2C1GOxvRopj8a4p6Y9GJBP5N+3aai3T+3UhAhFuV3z6DXxTBY8hmSKGVh/GLxbVLRNuvQ6KwTEc2tqICU/hG4VgDMbb0acuCiON/ZmCAbd/5zDzEtfU65P76LpHPInmg8tOVej+VsM5YrIM0Ou5D1YWM87+DjM3XbFL3YPRNuB95yrgWElMr7i58VHkJifroY+M2Ahnzuupqtp+xEvrD52sicVlEO3qQlZ7NkWXeOMpxVETdNWSSvC/N+2kC4j4QtfjxU8+2NqKZmKyfsE5vdkQidPg+UMuQSfDh+EcGidok/JJnPXvi/xb1LbfRXLEbGdr3W60u11q96y3rayKxOXoGqlkMzLB0T5PfNVOOQehZensRhzWfjcFd0J+lHvwSCzXiMjGZm6CuWOxLdFDmeukGLkQ26uKyHvqbfzmS3FO7CV8lfhwt3/IiejKftYmed9zsOHcE7ofb10RCiwQ/h+bLqashMcQW9pXLaW7PpkV5rAFf8ZSxzgT0KPhxA1NoJia+G52JOBy/+cZy5POZNt7QaR7Xug3ZpU1ybv8H5sfIas8N+O151M9rtmG3P9FfrS6ax2kCPYrJuY5z+jMI/YE7yKMOjd8odSeNc3uIUucs4pmpeJuYZMmn8XsbP052yREHI+YIUddchChE3dzkmx7n1JCJ6akM3F3fFLnRPrvBc5A3IMgX5SbPa5+otPsrynlTlPPqaA/IdOU8HzpwL34sI9looc5DjnprxIuEr/XfsSnkczIJv93wC0ke2tPFOsDLHteuP6w/wy/76/XIMEhjV/w2wOoOXL5fnksirqsNj3wcr05Szj/G43yNTZW6b0lZ9wlK3VNi1FOoicmmRC+XdpNNgAIX48huvf1dxL/El5HIw5/FtWvAFUSvfqU1kdAWODb2OF/jE0rdaaOkb6bUfVaMelyjjh4yNjEZCjzmuFi9zEdWIvJmPQ9Zosp85GuYhB+lvHatr46osbQWhcPXROJXjvOXk979+lBH3TUkwksahil1X+BZR6EmJj9xXKhe5hBvbJiWYci6eJKH823Sf15PT3jt+fjnBNESvfiaSFzpOD8LBTlGke/AlHWvrNR9vmcdmonJta6TknTKvshY1sViJNfFU8pvsuZdZOl2MjIv8WUZ4puQ1u/gTOIHirsJMcVxLek24hWFI4J3HH/vIP0Qa6xybH6OdS/wrKOQIBdD0c0BehBz8ZAMQ4LB+ZiTuKxskzAEsfaNuuajiHNVXLREL74mEt9S6piSQKb+3K3UvW7Kuk9U6vYNwqF95ZMmL4p1kRrlSry+KqIoLkesu8je1XML3Kt695DOXDsLE4ndlTruTyHbeNwrhLNS1FtnhqPuGvAhzzq0/mu2XxabMeg72HdSzjhbg5Fx/g3IfGMBMhxyRdVLy87IaslSxOzibGQolZYsTCSG4J7o15AN0STcrNR5uXLeIKKfmSOVuv8WQ0ZX/82LUYfK2YqgXYhXmpEPWZpIXOGop/6wTHCf2hRt2Faj+XByLWTXfSkyf7yWgXZdIAs9mkPZGZ4yav03zbMOlTWQXWmXoN/N4iKGkyxNJD6CbgnwBn5L3p1EO3v9pcl5ayOT4sbfNu7k782KsbgaSzf+Kea0/vNdBVP5vnKBF/HzwzCSk7WJxDVKfTVkPnEZzYeGQ5Ahq8/eU6N/iks56mUiYhFwFdHmPP8Ro73aJD/O5rAT1/ithpgBGPmimUgkCdQ9Bv/gdq8gPihTkYm8NpLoXxr3ZqKUo4Z7I6+xPEu8KDRZ998KTFIqf53sbayMgWgmEkkz7O6Lv41Y3PI0K0aGGUm0cviWd5B4WnHIo//e52eKsGekrdyIRDORSJsF6Yv4GXDGKS8zcNPxOxnVvRhJehSHPPsPkPA3LoGTeHQZ8UhkIhGDz+Lv6BZVZtB8T8aV8StOmYV4rMZF67/rok6OWoMej9uO/wFkgm7kS94mElORcfiDKeroQbYBJtF8YzDtZuH1iKnNIwnOzTXMqGaHf1rayg0vTsd9DzIzkUCGIochdmm+b/WliAOZ5mIMYq4e9yvVi0SuTGplXUfrv9SB6K5UKt85beUVpB59PssyFfc9yMREognbIEv7tyC71YsQZZiH7G1chdhu+QSoqLM3sqGsKcXTiEn+8WSXxCZXE5OHHRUvpnyR4UMwCNmHmE5243jfkpmJRIFEKYlPbpS45Gpi4trmn5FF5S3OGHRf6bzLtPybmAsuJXmd7ANHayYm9/hUoE3S18Gdquw5bxGryQjEODOrIBRJaNVEnXcjY//+cbz+jrhmL834Wlvjttj2mqBrwyQtEcxMn8orzBlkY6GbhlIleonJPYiH5CTkDX8/YrSYNamdzDQF0XJk+HpxVZFhxA+Alget+gWp0wXckfM1Ui/xakMsTUEW+VReUbYnOsFO3vRSrEtzq+L6gvTiGahB+4JoubAX+1ReUTT30QeQyWZWHO74+0zyGZJUiQ7cNlszEee/SDQF0TLALvepvKJo/XI+YlaRBRvjVpBWnn8UxTjcX3rv4WkZXWQNIYsoJu1MJiYmpiDlpZAwNRUmkxeMKUh50W6wDbGiyaT/TEHKi+sLsgB4rUhBWpRM+s8UpJwMx50X3IZX0YzE7asUq/9MQcrJVrjvjSlINJqJiSlIBcjVyacNyGz+ZgpSTmyJNx2ZrQA22ygchphTaJaqkxzntgOao1hW/bK7cmwr3DkMDSFu//UiuSNnoFgUjwD+C//YRFasVK28jSRtfT/mVn0isw7i31Bk0hvDKCt/QVLKze1A5iH3Yz7mhtGf6cBeg4AvACcHFsYwysZY4JlBSHTwcWFlMYxSMrKeOTWvZDKG0crM7UBm7814gIxyJxhGyfk28LEmf+8B95JXZNxSw6gIrtjBPbaTbhgKpiCGoWAKYhgKpiCGoaAZ1nVEHDeMquDyHal1IPGVsg4abBhVYHEn8HxoKQyjpDzbiSRoMQxjIFM7gDWQvNNrBxbGMMrE34EtOoH5SIhLi/VqGEI3kq9xYX2ZdxripugV8dowKsyTwG6Ij9SA5a1OxJPq44gDlStnXNZRzA0jbzbC7RR4L5JO7y7gj7gNeFfgCNyGjIekFNYwiibR82w76YahYApiGAqmIIahYApiGAqmIIahoFnr9irHvo2sChhGq7CBcqzHdUBTkNnKsWYO7obRqsxyHXDZwYOYwL8JrJq5OIZRHuYDY4BlzQ5qc5ClwE/zkMgwSsSFOJQD9C8ISJTrB4GJWUpkGCVhBmJO5Ux5ELWKtQSxzZqeoVCGUQbuAiajKAdEf0H6/+4wYAqSXGe1GOcaRhmo5/94BPglcCMeRon/ABXFXVJPII02AAAAAElFTkSuQmCC;fontSize=19;" vertex="1" parent="1">
          <mxGeometry x="80" y="200" width="100" height="100" as="geometry" />
        </mxCell>
        <mxCell id="Vw8O1fEMMfxQHj2jqCue-2" value="&lt;font style=&quot;font-size: 18px;&quot;&gt;DevOps&lt;/font&gt;" style="text;html=1;strokeColor=none;fillColor=none;align=center;verticalAlign=middle;whiteSpace=wrap;rounded=0;" vertex="1" parent="1">
          <mxGeometry x="92" y="162" width="60" height="30" as="geometry" />
        </mxCell>
        <mxCell id="Vw8O1fEMMfxQHj2jqCue-3" value="" style="dashed=0;outlineConnect=0;html=1;align=center;labelPosition=center;verticalLabelPosition=bottom;verticalAlign=top;shape=mxgraph.webicons.github;gradientColor=#DFDEDE" vertex="1" parent="1">
          <mxGeometry x="80.80000000000001" y="401" width="102.4" height="102.4" as="geometry" />
        </mxCell>
        <mxCell id="Vw8O1fEMMfxQHj2jqCue-4" value="&lt;font style=&quot;font-size: 18px;&quot;&gt;Github repo&lt;/font&gt;" style="text;html=1;strokeColor=none;fillColor=none;align=center;verticalAlign=middle;whiteSpace=wrap;rounded=0;" vertex="1" parent="1">
          <mxGeometry x="73" y="509" width="117" height="30" as="geometry" />
        </mxCell>
      </root>
    </mxGraphModel>
  </diagram>
</mxfile>
